<?xml version="1.0" standalone="no"?><svg xmlns:xlink="http://www.w3.org/1999/xlink" xmlns="http://www.w3.org/2000/svg" viewBox="0 0 1000 583.3349686990992" preserveAspectRatio="xMaxYMax slice"><g transform="scale(1.226524324430402)"><rect x="0" y="0" width="815.3142857142858" height="475.6" fill="#252525"/><rect x="0" y="0" width="67.94285714285715" height="67.94285714285715" fill="#252525"/><rect x="0" y="0" width="33.97" height="33.97" fill="#253035"/><polygon points="33.97,0 33.97,33.97 0,33.97" fill="#254452"/><rect x="33.97" y="0" width="33.97" height="33.97" fill="#256f90"/><polygon points="67.94,0 67.94,33.97 33.97,33.97" fill="#255469"/><rect x="0" y="33.97" width="33.97" height="33.97" fill="#256886"/><polygon points="0,33.97 33.97,33.97 0,67.94" fill="#605f5f"/><rect x="33.97" y="33.97" width="33.97" height="33.97" fill="#254452"/><polygon points="33.97,33.97 67.94,33.97 67.94,67.94" fill="#257599"/><rect x="67.94285714285715" y="0" width="67.94285714285715" height="67.94285714285715" fill="#252525"/><rect x="67.94" y="0" width="33.97" height="33.97" fill="#918f8f"/><polygon points="101.91,0 101.91,33.97 67.94,33.97" fill="#303030"/><rect x="101.91" y="0" width="33.97" height="33.97" fill="#257194"/><polygon points="135.88,0 135.88,33.97 101.91,33.97" fill="#257396"/><rect x="67.94" y="33.97" width="33.97" height="33.97" fill="#8b8989"/><polygon points="67.94,33.97 101.91,33.97 101.91,67.94" fill="#252829"/><rect x="101.91" y="33.97" width="33.97" height="33.97" fill="#a6a4a4"/><polygon points="101.91,33.97 135.88,67.94 101.91,67.94" fill="#343434"/><rect x="135.8857142857143" y="0" width="67.94285714285715" height="67.94285714285715" fill="#252525"/><rect x="135.89" y="0" width="33.97" height="33.97" fill="#dddbdb"/><polygon points="135.89,0 169.85999999999999,0 135.89,33.97" fill="#d1cece"/><rect x="169.86" y="0" width="33.97" height="33.97" fill="#585757"/><polygon points="169.86,0 203.83,0 203.83,33.97" fill="#253035"/><rect x="135.89" y="33.97" width="33.97" height="33.97" fill="#929191"/><polygon points="135.89,33.97 169.85999999999999,67.94 135.89,67.94" fill="#252f33"/><rect x="169.86" y="33.97" width="33.97" height="33.97" fill="#254d60"/><polygon points="203.83,33.97 203.83,67.94 169.86,67.94" fill="#bdbbbb"/><rect x="203.83" y="0" width="67.94" height="67.94" fill="#585858"/><polygon points="271.77,0 271.77,67.94 203.83,67.94" fill="#254756"/><rect x="271.77" y="0" width="67.94" height="67.94" fill="#6d6c6c"/><polygon points="271.77,0 339.71,0 271.77,67.94" fill="#257194"/><rect x="339.7142857142858" y="0" width="67.94285714285715" height="67.94285714285715" fill="#252525"/><rect x="339.71" y="0" width="33.97" height="33.97" fill="#5b5a5a"/><polygon points="339.71,0 373.67999999999995,33.97 339.71,33.97" fill="#252627"/><rect x="373.69" y="0" width="33.97" height="33.97" fill="#bbb9b9"/><polygon points="373.69,0 407.65999999999997,33.97 373.69,33.97" fill="#255970"/><rect x="339.71" y="33.97" width="33.97" height="33.97" fill="#255f79"/><polygon points="339.71,33.97 373.67999999999995,33.97 339.71,67.94" fill="#696868"/><rect x="373.69" y="33.97" width="33.97" height="33.97" fill="#4e4d4d"/><polygon points="407.65999999999997,33.97 407.65999999999997,67.94 373.69,67.94" fill="#25343b"/><rect x="407.66" y="0" width="67.94" height="67.94" fill="#253f4b"/><polygon points="407.66,0 475.6,67.94 407.66,67.94" fill="#282828"/><rect x="475.6" y="0" width="67.94285714285715" height="67.94285714285715" fill="#252525"/><rect x="475.6" y="0" width="33.97" height="33.97" fill="#252525"/><polygon points="509.57000000000005,0 509.57000000000005,33.97 475.6,33.97" fill="#25414e"/><rect x="509.57" y="0" width="33.97" height="33.97" fill="#bcbaba"/><polygon points="509.57,0 543.54,33.97 509.57,33.97" fill="#257193"/><rect x="475.6" y="33.97" width="33.97" height="33.97" fill="#404040"/><polygon points="475.6,33.97 509.57000000000005,33.97 509.57000000000005,67.94" fill="#d6d4d4"/><rect x="509.57" y="33.97" width="33.97" height="33.97" fill="#253841"/><polygon points="509.57,33.97 543.54,33.97 543.54,67.94" fill="#252a2d"/><rect x="543.5428571428572" y="0" width="67.94285714285715" height="67.94285714285715" fill="#252525"/><rect x="543.54" y="0" width="33.97" height="33.97" fill="#404040"/><polygon points="543.54,0 577.51,0 543.54,33.97" fill="#25414e"/><rect x="577.51" y="0" width="33.97" height="33.97" fill="#252f34"/><polygon points="611.48,0 611.48,33.97 577.51,33.97" fill="#25617d"/><rect x="543.54" y="33.97" width="33.97" height="33.97" fill="#255063"/><polygon points="543.54,33.97 577.51,67.94 543.54,67.94" fill="#292929"/><rect x="577.51" y="33.97" width="33.97" height="33.97" fill="#d6d4d4"/><polygon points="611.48,33.97 611.48,67.94 577.51,67.94" fill="#253f4a"/><rect x="611.49" y="0" width="67.94" height="67.94" fill="#254554"/><polygon points="611.49,0 679.4300000000001,67.94 611.49,67.94" fill="#256c8d"/><rect x="679.43" y="0" width="67.94" height="67.94" fill="#7f7e7e"/><polygon points="679.43,0 747.3699999999999,0 747.3699999999999,67.94" fill="#b2b0b0"/><rect x="747.37" y="0" width="67.94" height="67.94" fill="#256e90"/><polygon points="747.37,0 815.31,0 747.37,67.94" fill="#254d5f"/><rect x="0" y="67.94" width="67.94" height="67.94" fill="#253b45"/><polygon points="0,67.94 67.94,67.94 67.94,135.88" fill="#256c8d"/><rect x="67.94" y="67.94" width="67.94" height="67.94" fill="#252b2d"/><polygon points="67.94,67.94 135.88,67.94 135.88,135.88" fill="#c8c6c6"/><rect x="135.89" y="67.94" width="67.94" height="67.94" fill="#7e7d7d"/><polygon points="135.89,67.94 203.82999999999998,67.94 135.89,135.88" fill="#b8b6b6"/><rect x="203.82857142857145" y="67.94285714285715" width="67.94285714285715" height="67.94285714285715" fill="#252525"/><rect x="203.83" y="67.94" width="33.97" height="33.97" fill="#2a2a2a"/><polygon points="237.8,67.94 237.8,101.91 203.83,101.91" fill="#272727"/><rect x="237.8" y="67.94" width="33.97" height="33.97" fill="#25627e"/><polygon points="237.8,67.94 271.77,101.91 237.8,101.91" fill="#e5e2e2"/><rect x="203.83" y="101.91" width="33.97" height="33.97" fill="#253841"/><polygon points="203.83,101.91 237.8,135.88 203.83,135.88" fill="#858383"/><rect x="237.8" y="101.91" width="33.97" height="33.97" fill="#255e78"/><polygon points="271.77,101.91 271.77,135.88 237.8,135.88" fill="#2e2e2e"/><rect x="271.7714285714286" y="67.94285714285715" width="67.94285714285715" height="67.94285714285715" fill="#252525"/><rect x="271.77" y="67.94" width="33.97" height="33.97" fill="#504f4f"/><polygon points="271.77,67.94 305.74,67.94 305.74,101.91" fill="#b2b0b0"/><rect x="305.74" y="67.94" width="33.97" height="33.97" fill="#9f9d9d"/><polygon points="305.74,67.94 339.71000000000004,67.94 339.71000000000004,101.91" fill="#b8b6b6"/><rect x="271.77" y="101.91" width="33.97" height="33.97" fill="#255368"/><polygon points="271.77,101.91 305.74,101.91 305.74,135.88" fill="#343434"/><rect x="305.74" y="101.91" width="33.97" height="33.97" fill="#25292b"/><polygon points="305.74,101.91 339.71000000000004,101.91 339.71000000000004,135.88" fill="#257396"/><rect x="339.71" y="67.94" width="67.94" height="67.94" fill="#256684"/><polygon points="339.71,67.94 407.65,135.88 339.71,135.88" fill="#aeacac"/><rect x="407.66" y="67.94" width="67.94" height="67.94" fill="#25607b"/><polygon points="475.6,67.94 475.6,135.88 407.66,135.88" fill="#282828"/><rect x="475.6" y="67.94" width="67.94" height="67.94" fill="#eeebeb"/><polygon points="475.6,67.94 543.54,135.88 475.6,135.88" fill="#252f34"/><rect x="543.54" y="67.94" width="67.94" height="67.94" fill="#252626"/><polygon points="543.54,67.94 611.48,67.94 611.48,135.88" fill="#3c3b3b"/><rect x="611.4857142857144" y="67.94285714285715" width="67.94285714285715" height="67.94285714285715" fill="#252525"/><rect x="611.49" y="67.94" width="33.97" height="33.97" fill="#434242"/><polygon points="611.49,67.94 645.46,101.91 611.49,101.91" fill="#cccaca"/><rect x="645.46" y="67.94" width="33.97" height="33.97" fill="#8b8989"/><polygon points="645.46,67.94 679.4300000000001,101.91 645.46,101.91" fill="#252727"/><rect x="611.49" y="101.91" width="33.97" height="33.97" fill="#256988"/><polygon points="611.49,101.91 645.46,101.91 645.46,135.88" fill="#2e2d2d"/><rect x="645.46" y="101.91" width="33.97" height="33.97" fill="#252626"/><polygon points="645.46,101.91 679.4300000000001,101.91 645.46,135.88" fill="#25546a"/><rect x="679.4285714285716" y="67.94285714285715" width="67.94285714285715" height="67.94285714285715" fill="#252525"/><rect x="679.43" y="67.94" width="33.97" height="33.97" fill="#d2d0d0"/><polygon points="679.43,67.94 713.4,101.91 679.43,101.91" fill="#253942"/><rect x="713.4" y="67.94" width="33.97" height="33.97" fill="#25404c"/><polygon points="713.4,67.94 747.37,101.91 713.4,101.91" fill="#253b45"/><rect x="679.43" y="101.91" width="33.97" height="33.97" fill="#25292b"/><polygon points="679.43,101.91 713.4,101.91 713.4,135.88" fill="#256d8e"/><rect x="713.4" y="101.91" width="33.97" height="33.97" fill="#656464"/><polygon points="713.4,101.91 747.37,101.91 713.4,135.88" fill="#256f91"/><rect x="747.3714285714286" y="67.94285714285715" width="67.94285714285715" height="67.94285714285715" fill="#252525"/><rect x="747.37" y="67.94" width="33.97" height="33.97" fill="#2a2a2a"/><polygon points="747.37,67.94 781.34,101.91 747.37,101.91" fill="#25343b"/><rect x="781.34" y="67.94" width="33.97" height="33.97" fill="#efecec"/><polygon points="781.34,67.94 815.3100000000001,67.94 781.34,101.91" fill="#767575"/><rect x="747.37" y="101.91" width="33.97" height="33.97" fill="#25343b"/><polygon points="747.37,101.91 781.34,135.88 747.37,135.88" fill="#252c2f"/><rect x="781.34" y="101.91" width="33.97" height="33.97" fill="#256b8a"/><polygon points="781.34,101.91 815.3100000000001,101.91 815.3100000000001,135.88" fill="#25353c"/><rect x="0" y="135.89" width="67.94" height="67.94" fill="#254250"/><polygon points="67.94,135.89 67.94,203.82999999999998 0,203.82999999999998" fill="#7d7b7b"/><rect x="67.94285714285715" y="135.8857142857143" width="67.94285714285715" height="67.94285714285715" fill="#252525"/><rect x="67.94" y="135.89" width="33.97" height="33.97" fill="#d1cece"/><polygon points="101.91,135.89 101.91,169.85999999999999 67.94,169.85999999999999" fill="#25556b"/><rect x="101.91" y="135.89" width="33.97" height="33.97" fill="#c0bebe"/><polygon points="101.91,135.89 135.88,135.89 101.91,169.85999999999999" fill="#256b8c"/><rect x="67.94" y="169.86" width="33.97" height="33.97" fill="#2f2e2e"/><polygon points="101.91,169.86 101.91,203.83 67.94,203.83" fill="#d0cece"/><rect x="101.91" y="169.86" width="33.97" height="33.97" fill="#252d31"/><polygon points="101.91,169.86 135.88,169.86 101.91,203.83" fill="#3a3a3a"/><rect x="135.89" y="135.89" width="67.94" height="67.94" fill="#868484"/><polygon points="135.89,135.89 203.82999999999998,135.89 135.89,203.82999999999998" fill="#3a3a3a"/><rect x="203.82857142857145" y="135.8857142857143" width="67.94285714285715" height="67.94285714285715" fill="#252525"/><rect x="203.83" y="135.89" width="33.97" height="33.97" fill="#25566c"/><polygon points="237.8,135.89 237.8,169.85999999999999 203.83,169.85999999999999" fill="#747272"/><rect x="237.8" y="135.89" width="33.97" height="33.97" fill="#254a5b"/><polygon points="271.77,135.89 271.77,169.85999999999999 237.8,169.85999999999999" fill="#e5e2e2"/><rect x="203.83" y="169.86" width="33.97" height="33.97" fill="#5e5d5d"/><polygon points="203.83,169.86 237.8,203.83 203.83,203.83" fill="#252e32"/><rect x="237.8" y="169.86" width="33.97" height="33.97" fill="#255368"/><polygon points="237.8,169.86 271.77,169.86 237.8,203.83" fill="#256886"/><rect x="271.77" y="135.89" width="67.94" height="67.94" fill="#aaa8a8"/><polygon points="271.77,135.89 339.71,135.89 271.77,203.82999999999998" fill="#cac8c8"/><rect x="339.71" y="135.89" width="67.94" height="67.94" fill="#254a5a"/><polygon points="339.71,135.89 407.65,135.89 407.65,203.82999999999998" fill="#257599"/><rect x="407.66" y="135.89" width="67.94" height="67.94" fill="#252728"/><polygon points="407.66,135.89 475.6,135.89 407.66,203.82999999999998" fill="#257599"/><rect x="475.6" y="135.8857142857143" width="67.94285714285715" height="67.94285714285715" fill="#252525"/><rect x="475.6" y="135.89" width="33.97" height="33.97" fill="#3a3939"/><polygon points="475.6,135.89 509.57000000000005,135.89 509.57000000000005,169.85999999999999" fill="#256583"/><rect x="509.57" y="135.89" width="33.97" height="33.97" fill="#25363e"/><polygon points="509.57,135.89 543.54,135.89 509.57,169.85999999999999" fill="#25607b"/><rect x="475.6" y="169.86" width="33.97" height="33.97" fill="#25617d"/><polygon points="509.57000000000005,169.86 509.57000000000005,203.83 475.6,203.83" fill="#848383"/><rect x="509.57" y="169.86" width="33.97" height="33.97" fill="#f3f0f0"/><polygon points="509.57,169.86 543.54,203.83 509.57,203.83" fill="#253036"/><rect x="543.5428571428572" y="135.8857142857143" width="67.94285714285715" height="67.94285714285715" fill="#252525"/><rect x="543.54" y="135.89" width="33.97" height="33.97" fill="#252727"/><polygon points="577.51,135.89 577.51,169.85999999999999 543.54,169.85999999999999" fill="#252728"/><rect x="577.51" y="135.89" width="33.97" height="33.97" fill="#4b4a4a"/><polygon points="611.48,135.89 611.48,169.85999999999999 577.51,169.85999999999999" fill="#253d48"/><rect x="543.54" y="169.86" width="33.97" height="33.97" fill="#747373"/><polygon points="543.54,169.86 577.51,169.86 543.54,203.83" fill="#e8e5e5"/><rect x="577.51" y="169.86" width="33.97" height="33.97" fill="#dddada"/><polygon points="577.51,169.86 611.48,169.86 611.48,203.83" fill="#253238"/><rect x="611.4857142857144" y="135.8857142857143" width="67.94285714285715" height="67.94285714285715" fill="#252525"/><rect x="611.49" y="135.89" width="33.97" height="33.97" fill="#253034"/><polygon points="611.49,135.89 645.46,169.85999999999999 611.49,169.85999999999999" fill="#254d5f"/><rect x="645.46" y="135.89" width="33.97" height="33.97" fill="#255266"/><polygon points="645.46,135.89 679.4300000000001,135.89 645.46,169.85999999999999" fill="#aaa8a8"/><rect x="611.49" y="169.86" width="33.97" height="33.97" fill="#d3d0d0"/><polygon points="611.49,169.86 645.46,169.86 611.49,203.83" fill="#cac8c8"/><rect x="645.46" y="169.86" width="33.97" height="33.97" fill="#777676"/><polygon points="679.4300000000001,169.86 679.4300000000001,203.83 645.46,203.83" fill="#256f91"/><rect x="679.4285714285716" y="135.8857142857143" width="67.94285714285715" height="67.94285714285715" fill="#252525"/><rect x="679.43" y="135.89" width="33.97" height="33.97" fill="#253c47"/><polygon points="713.4,135.89 713.4,169.85999999999999 679.43,169.85999999999999" fill="#253a43"/><rect x="713.4" y="135.89" width="33.97" height="33.97" fill="#5f5f5f"/><polygon points="713.4,135.89 747.37,135.89 713.4,169.85999999999999" fill="#255266"/><rect x="679.43" y="169.86" width="33.97" height="33.97" fill="#3c3b3b"/><polygon points="713.4,169.86 713.4,203.83 679.43,203.83" fill="#989797"/><rect x="713.4" y="169.86" width="33.97" height="33.97" fill="#ebe9e9"/><polygon points="713.4,169.86 747.37,169.86 713.4,203.83" fill="#255870"/><rect x="747.37" y="135.89" width="67.94" height="67.94" fill="#5f5e5e"/><polygon points="747.37,135.89 815.31,135.89 815.31,203.82999999999998" fill="#256c8d"/><rect x="0" y="203.83" width="67.94" height="67.94" fill="#b4b2b2"/><polygon points="0,203.83 67.94,203.83 0,271.77" fill="#bab8b8"/><rect x="67.94285714285715" y="203.82857142857145" width="67.94285714285715" height="67.94285714285715" fill="#252525"/><rect x="67.94" y="203.83" width="33.97" height="33.97" fill="#252e32"/><polygon points="67.94,203.83 101.91,203.83 101.91,237.8" fill="#25586f"/><rect x="101.91" y="203.83" width="33.97" height="33.97" fill="#5e5d5d"/><polygon points="101.91,203.83 135.88,203.83 135.88,237.8" fill="#dedcdc"/><rect x="67.94" y="237.8" width="33.97" height="33.97" fill="#255a73"/><polygon points="67.94,237.8 101.91,237.8 67.94,271.77" fill="#253f4b"/><rect x="101.91" y="237.8" width="33.97" height="33.97" fill="#e2dfdf"/><polygon points="101.91,237.8 135.88,271.77 101.91,271.77" fill="#256c8c"/><rect x="135.89" y="203.83" width="67.94" height="67.94" fill="#bab8b8"/><polygon points="203.82999999999998,203.83 203.82999999999998,271.77 135.89,271.77" fill="#254554"/><rect x="203.83" y="203.83" width="67.94" height="67.94" fill="#253d47"/><polygon points="203.83,203.83 271.77,271.77 203.83,271.77" fill="#253c47"/><rect x="271.7714285714286" y="203.82857142857145" width="67.94285714285715" height="67.94285714285715" fill="#252525"/><rect x="271.77" y="203.83" width="33.97" height="33.97" fill="#e3e0e0"/><polygon points="271.77,203.83 305.74,203.83 271.77,237.8" fill="#2a2a2a"/><rect x="305.74" y="203.83" width="33.97" height="33.97" fill="#252f34"/><polygon points="305.74,203.83 339.71000000000004,203.83 339.71000000000004,237.8" fill="#b3b1b1"/><rect x="271.77" y="237.8" width="33.97" height="33.97" fill="#424141"/><polygon points="271.77,237.8 305.74,237.8 305.74,271.77" fill="#25343b"/><rect x="305.74" y="237.8" width="33.97" height="33.97" fill="#5b5b5b"/><polygon points="305.74,237.8 339.71000000000004,237.8 339.71000000000004,271.77" fill="#254e60"/><rect x="339.7142857142858" y="203.82857142857145" width="67.94285714285715" height="67.94285714285715" fill="#252525"/><rect x="339.71" y="203.83" width="33.97" height="33.97" fill="#255d77"/><polygon points="339.71,203.83 373.67999999999995,203.83 373.67999999999995,237.8" fill="#257092"/><rect x="373.69" y="203.83" width="33.97" height="33.97" fill="#b9b7b7"/><polygon points="407.65999999999997,203.83 407.65999999999997,237.8 373.69,237.8" fill="#9e9c9c"/><rect x="339.71" y="237.8" width="33.97" height="33.97" fill="#c6c4c4"/><polygon points="339.71,237.8 373.67999999999995,237.8 373.67999999999995,271.77" fill="#256e8f"/><rect x="373.69" y="237.8" width="33.97" height="33.97" fill="#959393"/><polygon points="407.65999999999997,237.8 407.65999999999997,271.77 373.69,271.77" fill="#254f63"/><rect x="407.66" y="203.83" width="67.94" height="67.94" fill="#253f4b"/><polygon points="407.66,203.83 475.6,271.77 407.66,271.77" fill="#252b2e"/><rect x="475.6" y="203.83" width="67.94" height="67.94" fill="#a9a7a7"/><polygon points="475.6,203.83 543.54,271.77 475.6,271.77" fill="#eae7e7"/><rect x="543.5428571428572" y="203.82857142857145" width="67.94285714285715" height="67.94285714285715" fill="#252525"/><rect x="543.54" y="203.83" width="33.97" height="33.97" fill="#6f6e6e"/><polygon points="577.51,203.83 577.51,237.8 543.54,237.8" fill="#256c8d"/><rect x="577.51" y="203.83" width="33.97" height="33.97" fill="#eeebeb"/><polygon points="577.51,203.83 611.48,237.8 577.51,237.8" fill="#257397"/><rect x="543.54" y="237.8" width="33.97" height="33.97" fill="#257093"/><polygon points="543.54,237.8 577.51,271.77 543.54,271.77" fill="#256583"/><rect x="577.51" y="237.8" width="33.97" height="33.97" fill="#6a6969"/><polygon points="577.51,237.8 611.48,237.8 577.51,271.77" fill="#2c2c2c"/><rect x="611.4857142857144" y="203.82857142857145" width="67.94285714285715" height="67.94285714285715" fill="#252525"/><rect x="611.49" y="203.83" width="33.97" height="33.97" fill="#25363e"/><polygon points="611.49,203.83 645.46,237.8 611.49,237.8" fill="#253f4c"/><rect x="645.46" y="203.83" width="33.97" height="33.97" fill="#255165"/><polygon points="679.4300000000001,203.83 679.4300000000001,237.8 645.46,237.8" fill="#a09f9f"/><rect x="611.49" y="237.8" width="33.97" height="33.97" fill="#878585"/><polygon points="645.46,237.8 645.46,271.77 611.49,271.77" fill="#777676"/><rect x="645.46" y="237.8" width="33.97" height="33.97" fill="#d0cdcd"/><polygon points="645.46,237.8 679.4300000000001,271.77 645.46,271.77" fill="#8a8989"/><rect x="679.43" y="203.83" width="67.94" height="67.94" fill="#252526"/><polygon points="747.3699999999999,203.83 747.3699999999999,271.77 679.43,271.77" fill="#acaaaa"/><rect x="747.37" y="203.83" width="67.94" height="67.94" fill="#bbb9b9"/><polygon points="815.31,203.83 815.31,271.77 747.37,271.77" fill="#256e8f"/><rect x="0" y="271.77" width="67.94" height="67.94" fill="#828181"/><polygon points="0,271.77 67.94,271.77 0,339.71" fill="#254d5f"/><rect x="67.94" y="271.77" width="67.94" height="67.94" fill="#25424f"/><polygon points="67.94,271.77 135.88,271.77 67.94,339.71" fill="#e4e1e1"/><rect x="135.89" y="271.77" width="67.94" height="67.94" fill="#253d48"/><polygon points="135.89,271.77 203.82999999999998,271.77 203.82999999999998,339.71" fill="#454545"/><rect x="203.82857142857145" y="271.7714285714286" width="67.94285714285715" height="67.94285714285715" fill="#252525"/><rect x="203.83" y="271.77" width="33.97" height="33.97" fill="#919090"/><polygon points="203.83,271.77 237.8,271.77 203.83,305.74" fill="#256785"/><rect x="237.8" y="271.77" width="33.97" height="33.97" fill="#254f62"/><polygon points="271.77,271.77 271.77,305.74 237.8,305.74" fill="#256d8e"/><rect x="203.83" y="305.74" width="33.97" height="33.97" fill="#797878"/><polygon points="203.83,305.74 237.8,339.71000000000004 203.83,339.71000000000004" fill="#255870"/><rect x="237.8" y="305.74" width="33.97" height="33.97" fill="#256f91"/><polygon points="237.8,305.74 271.77,339.71000000000004 237.8,339.71000000000004" fill="#257498"/><rect x="271.7714285714286" y="271.7714285714286" width="67.94285714285715" height="67.94285714285715" fill="#252525"/><rect x="271.77" y="271.77" width="33.97" height="33.97" fill="#c9c6c6"/><polygon points="305.74,271.77 305.74,305.74 271.77,305.74" fill="#d9d6d6"/><rect x="305.74" y="271.77" width="33.97" height="33.97" fill="#25373f"/><polygon points="339.71000000000004,271.77 339.71000000000004,305.74 305.74,305.74" fill="#464545"/><rect x="271.77" y="305.74" width="33.97" height="33.97" fill="#253137"/><polygon points="305.74,305.74 305.74,339.71000000000004 271.77,339.71000000000004" fill="#525151"/><rect x="305.74" y="305.74" width="33.97" height="33.97" fill="#25576e"/><polygon points="305.74,305.74 339.71000000000004,305.74 305.74,339.71000000000004" fill="#bab8b8"/><rect x="339.71" y="271.77" width="67.94" height="67.94" fill="#254452"/><polygon points="339.71,271.77 407.65,271.77 339.71,339.71" fill="#255c75"/><rect x="407.66" y="271.77" width="67.94" height="67.94" fill="#25617c"/><polygon points="407.66,271.77 475.6,339.71 407.66,339.71" fill="#474747"/><rect x="475.6" y="271.77" width="67.94" height="67.94" fill="#255970"/><polygon points="475.6,271.77 543.54,271.77 475.6,339.71" fill="#255971"/><rect x="543.5428571428572" y="271.7714285714286" width="67.94285714285715" height="67.94285714285715" fill="#252525"/><rect x="543.54" y="271.77" width="33.97" height="33.97" fill="#254553"/><polygon points="577.51,271.77 577.51,305.74 543.54,305.74" fill="#256b8c"/><rect x="577.51" y="271.77" width="33.97" height="33.97" fill="#25363d"/><polygon points="577.51,271.77 611.48,305.74 577.51,305.74" fill="#256785"/><rect x="543.54" y="305.74" width="33.97" height="33.97" fill="#25363d"/><polygon points="543.54,305.74 577.51,339.71000000000004 543.54,339.71000000000004" fill="#252d31"/><rect x="577.51" y="305.74" width="33.97" height="33.97" fill="#474747"/><polygon points="611.48,305.74 611.48,339.71000000000004 577.51,339.71000000000004" fill="#256683"/><rect x="611.4857142857144" y="271.7714285714286" width="67.94285714285715" height="67.94285714285715" fill="#252525"/><rect x="611.49" y="271.77" width="33.97" height="33.97" fill="#aeacac"/><polygon points="645.46,271.77 645.46,305.74 611.49,305.74" fill="#256c8d"/><rect x="645.46" y="271.77" width="33.97" height="33.97" fill="#383838"/><polygon points="645.46,271.77 679.4300000000001,271.77 645.46,305.74" fill="#e0dddd"/><rect x="611.49" y="305.74" width="33.97" height="33.97" fill="#939191"/><polygon points="611.49,305.74 645.46,305.74 645.46,339.71000000000004" fill="#e8e5e5"/><rect x="645.46" y="305.74" width="33.97" height="33.97" fill="#b6b4b4"/><polygon points="645.46,305.74 679.4300000000001,305.74 679.4300000000001,339.71000000000004" fill="#256785"/><rect x="679.4285714285716" y="271.7714285714286" width="67.94285714285715" height="67.94285714285715" fill="#252525"/><rect x="679.43" y="271.77" width="33.97" height="33.97" fill="#256b8c"/><polygon points="679.43,271.77 713.4,271.77 713.4,305.74" fill="#8b8989"/><rect x="713.4" y="271.77" width="33.97" height="33.97" fill="#bebbbb"/><polygon points="713.4,271.77 747.37,271.77 747.37,305.74" fill="#252f34"/><rect x="679.43" y="305.74" width="33.97" height="33.97" fill="#254452"/><polygon points="713.4,305.74 713.4,339.71000000000004 679.43,339.71000000000004" fill="#a19f9f"/><rect x="713.4" y="305.74" width="33.97" height="33.97" fill="#25617d"/><polygon points="713.4,305.74 747.37,339.71000000000004 713.4,339.71000000000004" fill="#253136"/><rect x="747.3714285714286" y="271.7714285714286" width="67.94285714285715" height="67.94285714285715" fill="#252525"/><rect x="747.37" y="271.77" width="33.97" height="33.97" fill="#255064"/><polygon points="747.37,271.77 781.34,271.77 747.37,305.74" fill="#b6b3b3"/><rect x="781.34" y="271.77" width="33.97" height="33.97" fill="#25576e"/><polygon points="815.3100000000001,271.77 815.3100000000001,305.74 781.34,305.74" fill="#313131"/><rect x="747.37" y="305.74" width="33.97" height="33.97" fill="#25576e"/><polygon points="747.37,305.74 781.34,339.71000000000004 747.37,339.71000000000004" fill="#575656"/><rect x="781.34" y="305.74" width="33.97" height="33.97" fill="#3f3f3f"/><polygon points="781.34,305.74 815.3100000000001,339.71000000000004 781.34,339.71000000000004" fill="#acaaaa"/><rect x="0" y="339.71" width="67.94" height="67.94" fill="#c7c5c5"/><polygon points="0,339.71 67.94,407.65 0,407.65" fill="#e9e6e6"/><rect x="67.94285714285715" y="339.7142857142858" width="67.94285714285715" height="67.94285714285715" fill="#252525"/><rect x="67.94" y="339.71" width="33.97" height="33.97" fill="#6f6e6e"/><polygon points="67.94,339.71 101.91,373.67999999999995 67.94,373.67999999999995" fill="#25343b"/><rect x="101.91" y="339.71" width="33.97" height="33.97" fill="#254453"/><polygon points="101.91,339.71 135.88,373.67999999999995 101.91,373.67999999999995" fill="#256785"/><rect x="67.94" y="373.69" width="33.97" height="33.97" fill="#686868"/><polygon points="67.94,373.69 101.91,373.69 67.94,407.65999999999997" fill="#255166"/><rect x="101.91" y="373.69" width="33.97" height="33.97" fill="#255469"/><polygon points="101.91,373.69 135.88,373.69 135.88,407.65999999999997" fill="#7c7b7b"/><rect x="135.89" y="339.71" width="67.94" height="67.94" fill="#605f5f"/><polygon points="135.89,339.71 203.82999999999998,407.65 135.89,407.65" fill="#6f6e6e"/><rect x="203.83" y="339.71" width="67.94" height="67.94" fill="#8b8a8a"/><polygon points="203.83,339.71 271.77,339.71 271.77,407.65" fill="#817f7f"/><rect x="271.7714285714286" y="339.7142857142858" width="67.94285714285715" height="67.94285714285715" fill="#252525"/><rect x="271.77" y="339.71" width="33.97" height="33.97" fill="#cfcccc"/><polygon points="271.77,339.71 305.74,339.71 271.77,373.67999999999995" fill="#bdbbbb"/><rect x="305.74" y="339.71" width="33.97" height="33.97" fill="#255971"/><polygon points="339.71000000000004,339.71 339.71000000000004,373.67999999999995 305.74,373.67999999999995" fill="#646363"/><rect x="271.77" y="373.69" width="33.97" height="33.97" fill="#256b8a"/><polygon points="271.77,373.69 305.74,407.65999999999997 271.77,407.65999999999997" fill="#c7c5c5"/><rect x="305.74" y="373.69" width="33.97" height="33.97" fill="#252a2c"/><polygon points="305.74,373.69 339.71000000000004,373.69 305.74,407.65999999999997" fill="#255063"/><rect x="339.7142857142858" y="339.7142857142858" width="67.94285714285715" height="67.94285714285715" fill="#252525"/><rect x="339.71" y="339.71" width="33.97" height="33.97" fill="#8e8d8d"/><polygon points="339.71,339.71 373.67999999999995,373.67999999999995 339.71,373.67999999999995" fill="#565555"/><rect x="373.69" y="339.71" width="33.97" height="33.97" fill="#253136"/><polygon points="407.65999999999997,339.71 407.65999999999997,373.67999999999995 373.69,373.67999999999995" fill="#4d4c4c"/><rect x="339.71" y="373.69" width="33.97" height="33.97" fill="#253e4a"/><polygon points="339.71,373.69 373.67999999999995,407.65999999999997 339.71,407.65999999999997" fill="#aba9a9"/><rect x="373.69" y="373.69" width="33.97" height="33.97" fill="#25566d"/><polygon points="373.69,373.69 407.65999999999997,407.65999999999997 373.69,407.65999999999997" fill="#2b2b2b"/><rect x="407.6571428571429" y="339.7142857142858" width="67.94285714285715" height="67.94285714285715" fill="#252525"/><rect x="407.66" y="339.71" width="33.97" height="33.97" fill="#253841"/><polygon points="407.66,339.71 441.63,373.67999999999995 407.66,373.67999999999995" fill="#255f7a"/><rect x="441.63" y="339.71" width="33.97" height="33.97" fill="#255d77"/><polygon points="441.63,339.71 475.6,373.67999999999995 441.63,373.67999999999995" fill="#525252"/><rect x="407.66" y="373.69" width="33.97" height="33.97" fill="#a7a5a5"/><polygon points="407.66,373.69 441.63,373.69 441.63,407.65999999999997" fill="#252d31"/><rect x="441.63" y="373.69" width="33.97" height="33.97" fill="#e1dede"/><polygon points="441.63,373.69 475.6,373.69 475.6,407.65999999999997" fill="#8b8a8a"/><rect x="475.6" y="339.71" width="67.94" height="67.94" fill="#bab8b8"/><polygon points="475.6,339.71 543.54,339.71 543.54,407.65" fill="#5d5c5c"/><rect x="543.5428571428572" y="339.7142857142858" width="67.94285714285715" height="67.94285714285715" fill="#252525"/><rect x="543.54" y="339.71" width="33.97" height="33.97" fill="#257092"/><polygon points="543.54,339.71 577.51,339.71 543.54,373.67999999999995" fill="#cccaca"/><rect x="577.51" y="339.71" width="33.97" height="33.97" fill="#dbd9d9"/><polygon points="577.51,339.71 611.48,373.67999999999995 577.51,373.67999999999995" fill="#9b9999"/><rect x="543.54" y="373.69" width="33.97" height="33.97" fill="#254554"/><polygon points="543.54,373.69 577.51,373.69 577.51,407.65999999999997" fill="#f2efef"/><rect x="577.51" y="373.69" width="33.97" height="33.97" fill="#838282"/><polygon points="577.51,373.69 611.48,373.69 577.51,407.65999999999997" fill="#6e6d6d"/><rect x="611.4857142857144" y="339.7142857142858" width="67.94285714285715" height="67.94285714285715" fill="#252525"/><rect x="611.49" y="339.71" width="33.97" height="33.97" fill="#256e8f"/><polygon points="611.49,339.71 645.46,373.67999999999995 611.49,373.67999999999995" fill="#7e7d7d"/><rect x="645.46" y="339.71" width="33.97" height="33.97" fill="#257093"/><polygon points="645.46,339.71 679.4300000000001,373.67999999999995 645.46,373.67999999999995" fill="#c2c0c0"/><rect x="611.49" y="373.69" width="33.97" height="33.97" fill="#6f6e6e"/><polygon points="645.46,373.69 645.46,407.65999999999997 611.49,407.65999999999997" fill="#255e78"/><rect x="645.46" y="373.69" width="33.97" height="33.97" fill="#6f6e6e"/><polygon points="645.46,373.69 679.4300000000001,373.69 679.4300000000001,407.65999999999997" fill="#989696"/><rect x="679.4285714285716" y="339.7142857142858" width="67.94285714285715" height="67.94285714285715" fill="#252525"/><rect x="679.43" y="339.71" width="33.97" height="33.97" fill="#25414e"/><polygon points="713.4,339.71 713.4,373.67999999999995 679.43,373.67999999999995" fill="#383838"/><rect x="713.4" y="339.71" width="33.97" height="33.97" fill="#bbb9b9"/><polygon points="747.37,339.71 747.37,373.67999999999995 713.4,373.67999999999995" fill="#25586f"/><rect x="679.43" y="373.69" width="33.97" height="33.97" fill="#254351"/><polygon points="679.43,373.69 713.4,373.69 679.43,407.65999999999997" fill="#25292b"/><rect x="713.4" y="373.69" width="33.97" height="33.97" fill="#253b45"/><polygon points="747.37,373.69 747.37,407.65999999999997 713.4,407.65999999999997" fill="#8a8888"/><rect x="747.37" y="339.71" width="67.94" height="67.94" fill="#25637f"/><polygon points="815.31,339.71 815.31,407.65 747.37,407.65" fill="#dddbdb"/><rect x="0" y="407.66" width="67.94" height="67.94" fill="#dedbdb"/><polygon points="0,407.66 67.94,475.6 0,475.6" fill="#256d8e"/><rect x="67.94" y="407.66" width="67.94" height="67.94" fill="#d6d3d3"/><polygon points="67.94,407.66 135.88,407.66 135.88,475.6" fill="#aaa8a8"/><rect x="135.8857142857143" y="407.6571428571429" width="67.94285714285715" height="67.94285714285715" fill="#252525"/><rect x="135.89" y="407.66" width="33.97" height="33.97" fill="#797878"/><polygon points="135.89,407.66 169.85999999999999,441.63 135.89,441.63" fill="#25617c"/><rect x="169.86" y="407.66" width="33.97" height="33.97" fill="#dddada"/><polygon points="203.83,407.66 203.83,441.63 169.86,441.63" fill="#25363e"/><rect x="135.89" y="441.63" width="33.97" height="33.97" fill="#323131"/><polygon points="169.85999999999999,441.63 169.85999999999999,475.6 135.89,475.6" fill="#737272"/><rect x="169.86" y="441.63" width="33.97" height="33.97" fill="#cac8c8"/><polygon points="169.86,441.63 203.83,475.6 169.86,475.6" fill="#383838"/><rect x="203.83" y="407.66" width="67.94" height="67.94" fill="#253c47"/><polygon points="203.83,407.66 271.77,407.66 203.83,475.6" fill="#4d4c4c"/><rect x="271.7714285714286" y="407.6571428571429" width="67.94285714285715" height="67.94285714285715" fill="#252525"/><rect x="271.77" y="407.66" width="33.97" height="33.97" fill="#c6c3c3"/><polygon points="271.77,407.66 305.74,441.63 271.77,441.63" fill="#252d30"/><rect x="305.74" y="407.66" width="33.97" height="33.97" fill="#b8b6b6"/><polygon points="305.74,407.66 339.71000000000004,441.63 305.74,441.63" fill="#414040"/><rect x="271.77" y="441.63" width="33.97" height="33.97" fill="#efecec"/><polygon points="271.77,441.63 305.74,441.63 305.74,475.6" fill="#256480"/><rect x="305.74" y="441.63" width="33.97" height="33.97" fill="#255469"/><polygon points="305.74,441.63 339.71000000000004,441.63 339.71000000000004,475.6" fill="#6a6969"/><rect x="339.71" y="407.66" width="67.94" height="67.94" fill="#255d77"/><polygon points="339.71,407.66 407.65,407.66 339.71,475.6" fill="#253e4a"/><rect x="407.66" y="407.66" width="67.94" height="67.94" fill="#254756"/><polygon points="407.66,407.66 475.6,407.66 475.6,475.6" fill="#878686"/><rect x="475.6" y="407.66" width="67.94" height="67.94" fill="#25373f"/><polygon points="475.6,407.66 543.54,407.66 475.6,475.6" fill="#254655"/><rect x="543.5428571428572" y="407.6571428571429" width="67.94285714285715" height="67.94285714285715" fill="#252525"/><rect x="543.54" y="407.66" width="33.97" height="33.97" fill="#908e8e"/><polygon points="543.54,407.66 577.51,407.66 543.54,441.63" fill="#8e8c8c"/><rect x="577.51" y="407.66" width="33.97" height="33.97" fill="#25414e"/><polygon points="577.51,407.66 611.48,441.63 577.51,441.63" fill="#253f4b"/><rect x="543.54" y="441.63" width="33.97" height="33.97" fill="#254859"/><polygon points="543.54,441.63 577.51,441.63 577.51,475.6" fill="#f4f1f1"/><rect x="577.51" y="441.63" width="33.97" height="33.97" fill="#7d7c7c"/><polygon points="577.51,441.63 611.48,475.6 577.51,475.6" fill="#25373f"/><rect x="611.4857142857144" y="407.6571428571429" width="67.94285714285715" height="67.94285714285715" fill="#252525"/><rect x="611.49" y="407.66" width="33.97" height="33.97" fill="#254a5b"/><polygon points="611.49,407.66 645.46,441.63 611.49,441.63" fill="#b9b6b6"/><rect x="645.46" y="407.66" width="33.97" height="33.97" fill="#254756"/><polygon points="645.46,407.66 679.4300000000001,441.63 645.46,441.63" fill="#a19f9f"/><rect x="611.49" y="441.63" width="33.97" height="33.97" fill="#a8a7a7"/><polygon points="645.46,441.63 645.46,475.6 611.49,475.6" fill="#256684"/><rect x="645.46" y="441.63" width="33.97" height="33.97" fill="#257194"/><polygon points="645.46,441.63 679.4300000000001,441.63 679.4300000000001,475.6" fill="#f1eeee"/><rect x="679.4285714285716" y="407.6571428571429" width="67.94285714285715" height="67.94285714285715" fill="#252525"/><rect x="679.43" y="407.66" width="33.97" height="33.97" fill="#255f79"/><polygon points="713.4,407.66 713.4,441.63 679.43,441.63" fill="#9e9c9c"/><rect x="713.4" y="407.66" width="33.97" height="33.97" fill="#254b5d"/><polygon points="713.4,407.66 747.37,407.66 747.37,441.63" fill="#c9c6c6"/><rect x="679.43" y="441.63" width="33.97" height="33.97" fill="#e9e6e6"/><polygon points="713.4,441.63 713.4,475.6 679.43,475.6" fill="#2e2e2e"/><rect x="713.4" y="441.63" width="33.97" height="33.97" fill="#636262"/><polygon points="713.4,441.63 747.37,475.6 713.4,475.6" fill="#595858"/><rect x="747.37" y="407.66" width="67.94" height="67.94" fill="#254b5c"/><polygon points="747.37,407.66 815.31,475.6 747.37,475.6" fill="#255a72"/></g></svg>